<svg xmlns="http://www.w3.org/2000/svg" xmlns:xlink="http://www.w3.org/1999/xlink" xmlns:lucid="lucid" width="1400" height="330"><g transform="translate(-160 -280)" lucid:page-tab-id="Q3tKj0nEBD3C"><path d="M640 306c0-3.3 2.7-6 6-6h228c3.3 0 6 2.7 6 6v278c0 3.3-2.7 6-6 6H646c-3.3 0-6-2.7-6-6z" stroke="#5e5e5e" stroke-width="3" fill="#e5e5e5"/><use xlink:href="#a" transform="matrix(1,0,0,1,645,305) translate(0 24.888888888888886)"/><use xlink:href="#b" transform="matrix(1,0,0,1,645,305) translate(88.14814814814814 24.888888888888886)"/><path d="M900 306c0-3.3 2.7-6 6-6h428c3.3 0 6 2.7 6 6v278c0 3.3-2.7 6-6 6H906c-3.3 0-6-2.7-6-6z" stroke="#5e5e5e" stroke-width="3" fill="#b2d6ef"/><use xlink:href="#c" transform="matrix(1,0,0,1,912,312) translate(0 24.888888888888886)"/><path d="M180 306c0-3.3 2.7-6 6-6h428c3.3 0 6 2.7 6 6v278c0 3.3-2.7 6-6 6H186c-3.3 0-6-2.7-6-6z" stroke="#5e5e5e" stroke-width="3" fill="#d1bcd2"/><use xlink:href="#a" transform="matrix(1,0,0,1,192,312) translate(0 24.888888888888886)"/><use xlink:href="#d" transform="matrix(1,0,0,1,192,312) translate(88.14814814814814 24.888888888888886)"/><path d="M940 396c0-3.3 2.7-6 6-6h148c3.3 0 6 2.7 6 6v108c0 3.3-2.7 6-6 6H946c-3.3 0-6-2.7-6-6z" stroke="#5e5e5e" stroke-width="3" fill="#fff"/><use xlink:href="#e" transform="matrix(1,0,0,1,945,394.99999999999994) translate(14.598765432098773 45.27777777777778)"/><use xlink:href="#f" transform="matrix(1,0,0,1,945,394.99999999999994) translate(109.53703703703704 45.27777777777778)"/><use xlink:href="#g" transform="matrix(1,0,0,1,945,394.99999999999994) translate(46.60493827160494 71.94444444444446)"/><path d="M1160 396c0-3.3 2.7-6 6-6h148c3.3 0 6 2.7 6 6v108c0 3.3-2.7 6-6 6h-148c-3.3 0-6-2.7-6-6z" stroke="#5e5e5e" stroke-width="3" fill="#fff"/><use xlink:href="#h" transform="matrix(1,0,0,1,1165,394.99999999999994) translate(12.685185185185183 45.27777777777778)"/><use xlink:href="#i" transform="matrix(1,0,0,1,1165,394.99999999999994) translate(118.7962962962963 45.27777777777778)"/><use xlink:href="#g" transform="matrix(1,0,0,1,1165,394.99999999999994) translate(46.60493827160494 71.94444444444446)"/><path d="M1104 450h29.64" stroke="#5e5e5e" stroke-width="5" fill="none"/><path d="M1104.06 452.5h-2.56v-5h2.56z" fill="#5e5e5e"/><path d="M1150.4 450l-14.26 4.64v-9.28z" stroke="#5e5e5e" stroke-width="5" fill="#5e5e5e"/><path d="M680 396c0-3.3 2.7-6 6-6h148c3.3 0 6 2.7 6 6v114c-26.72-20.04-43.36-20.04-53.44-20.04-16 0-37.28 20.04-53.28 20.04-9.92 0-26.72 0-53.28-20.04z" stroke="#5e5e5e" stroke-width="3" fill="#fff"/><use xlink:href="#j" transform="matrix(1,0,0,1,685,394.99999999999994) translate(46.60493827160494 48.71527777777778)"/><path d="M420 396c0-3.3 2.7-6 6-6h148c3.3 0 6 2.7 6 6v108c0 3.3-2.7 6-6 6H426c-3.3 0-6-2.7-6-6z" stroke="#5e5e5e" stroke-width="3" fill="#fff"/><path d="M436 390v120m128-120v120" stroke="#5e5e5e" stroke-width="3" fill="none"/><use xlink:href="#k" transform="matrix(1,0,0,1,445,394.99999999999994) translate(23.827160493827158 32.77777777777778)"/><use xlink:href="#l" transform="matrix(1,0,0,1,445,394.99999999999994) translate(14.25925925925926 59.44444444444445)"/><use xlink:href="#i" transform="matrix(1,0,0,1,445,394.99999999999994) translate(77.22222222222223 59.44444444444445)"/><use xlink:href="#l" transform="matrix(1,0,0,1,445,394.99999999999994) translate(4.382716049382715 86.11111111111111)"/><use xlink:href="#m" transform="matrix(1,0,0,1,445,394.99999999999994) translate(67.34567901234567 86.11111111111111)"/><path d="M200 396c0-3.3 2.7-6 6-6h148c3.3 0 6 2.7 6 6v108c0 3.3-2.7 6-6 6H206c-3.3 0-6-2.7-6-6z" stroke="#5e5e5e" stroke-width="3" fill="#fff"/><path d="M216 390v120m128-120v120" stroke="#5e5e5e" stroke-width="3" fill="none"/><use xlink:href="#n" transform="matrix(1,0,0,1,225,394.99999999999994) translate(9.382716049382715 46.111111111111114)"/><use xlink:href="#g" transform="matrix(1,0,0,1,225,394.99999999999994) translate(26.60493827160494 72.77777777777777)"/><path d="M364 450h29.64" stroke="#5e5e5e" stroke-width="5" fill="none"/><path d="M364.06 452.5h-2.56v-5h2.56z" fill="#5e5e5e"/><path d="M410.4 450l-14.26 4.64v-9.28z" stroke="#5e5e5e" stroke-width="5" fill="#5e5e5e"/><path d="M584 450h69.64" stroke="#5e5e5e" stroke-width="5" fill="none"/><path d="M584.06 452.5h-2.56v-5h2.56z" fill="#5e5e5e"/><path d="M670.4 450l-14.26 4.64v-9.28z" stroke="#5e5e5e" stroke-width="5" fill="#5e5e5e"/><path d="M844 450.32h69.64" stroke="#5e5e5e" stroke-width="5" fill="none"/><path d="M844.06 452.82h-2.56v-5h2.56z" fill="#5e5e5e"/><path d="M930.4 450.32l-14.26 4.63v-9.27z" stroke="#5e5e5e" stroke-width="5" fill="#5e5e5e"/><path d="M1380 396c0-3.3 2.7-6 6-6h148c3.3 0 6 2.7 6 6v108c0 3.3-2.7 6-6 6h-148c-3.3 0-6-2.7-6-6z" stroke="#5e5e5e" stroke-width="3" fill="#fff"/><path d="M1396 390v120m128-120v120" stroke="#5e5e5e" stroke-width="3" fill="none"/><g><use xlink:href="#o" transform="matrix(1,0,0,1,1405,394.99999999999994) translate(5.03086419753086 46.111111111111114)"/><use xlink:href="#p" transform="matrix(1,0,0,1,1405,394.99999999999994) translate(24.166666666666668 72.77777777777777)"/></g><path d="M1324 450h29.64" stroke="#5e5e5e" stroke-width="5" fill="none"/><path d="M1324.06 452.5h-2.56v-5h2.56z" fill="#5e5e5e"/><path d="M1370.4 450l-14.26 4.64v-9.28z" stroke="#5e5e5e" stroke-width="5" fill="#5e5e5e"/><defs><path fill="#333" d="M30 0v-248h187v28H63v79h144v27H63v87h162V0H30" id="q"/><path fill="#333" d="M108 0H70L1-190h34L89-25l56-165h34" id="r"/><path fill="#333" d="M100-194c63 0 86 42 84 106H49c0 40 14 67 53 68 26 1 43-12 49-29l28 8c-11 28-37 45-77 45C44 4 14-33 15-96c1-61 26-98 85-98zm52 81c6-60-76-77-97-28-3 7-6 17-6 28h103" id="s"/><path fill="#333" d="M117-194c89-4 53 116 60 194h-32v-121c0-31-8-49-39-48C34-167 62-67 57 0H25l-1-190h30c1 10-1 24 2 32 11-22 29-35 61-36" id="t"/><path fill="#333" d="M59-47c-2 24 18 29 38 22v24C64 9 27 4 27-40v-127H5v-23h24l9-43h21v43h35v23H59v120" id="u"/><g id="a"><use transform="matrix(0.08641975308641973,0,0,0.08641975308641973,0,0)" xlink:href="#q"/><use transform="matrix(0.08641975308641973,0,0,0.08641975308641973,20.740740740740737,0)" xlink:href="#r"/><use transform="matrix(0.08641975308641973,0,0,0.08641975308641973,36.29629629629629,0)" xlink:href="#s"/><use transform="matrix(0.08641975308641973,0,0,0.08641975308641973,53.58024691358023,0)" xlink:href="#t"/><use transform="matrix(0.08641975308641973,0,0,0.08641975308641973,70.86419753086419,0)" xlink:href="#u"/></g><path fill="#333" d="M160-131c35 5 61 23 61 61C221 17 115-2 30 0v-248c76 3 177-17 177 60 0 33-19 50-47 57zm-97-11c50-1 110 9 110-42 0-47-63-36-110-37v79zm0 115c55-2 124 14 124-45 0-56-70-42-124-44v89" id="v"/><path fill="#333" d="M84 4C-5 8 30-112 23-190h32v120c0 31 7 50 39 49 72-2 45-101 50-169h31l1 190h-30c-1-10 1-25-2-33-11 22-28 36-60 37" id="w"/><path fill="#333" d="M135-143c-3-34-86-38-87 0 15 53 115 12 119 90S17 21 10-45l28-5c4 36 97 45 98 0-10-56-113-15-118-90-4-57 82-63 122-42 12 7 21 19 24 35" id="x"/><g id="b"><use transform="matrix(0.08641975308641973,0,0,0.08641975308641973,0,0)" xlink:href="#v"/><use transform="matrix(0.08641975308641973,0,0,0.08641975308641973,20.740740740740737,0)" xlink:href="#w"/><use transform="matrix(0.08641975308641973,0,0,0.08641975308641973,38.02469135802468,0)" xlink:href="#x"/></g><path fill="#333" d="M185-189c-5-48-123-54-124 2 14 75 158 14 163 119 3 78-121 87-175 55-17-10-28-26-33-46l33-7c5 56 141 63 141-1 0-78-155-14-162-118-5-82 145-84 179-34 5 7 8 16 11 25" id="y"/><path fill="#333" d="M100-194c62-1 85 37 85 99 1 63-27 99-86 99S16-35 15-95c0-66 28-99 85-99zM99-20c44 1 53-31 53-75 0-43-8-75-51-75s-53 32-53 75 10 74 51 75" id="z"/><path fill="#333" d="M114-163C36-179 61-72 57 0H25l-1-190h30c1 12-1 29 2 39 6-27 23-49 58-41v29" id="A"/><g id="c"><use transform="matrix(0.08641975308641973,0,0,0.08641975308641973,0,0)" xlink:href="#y"/><use transform="matrix(0.08641975308641973,0,0,0.08641975308641973,20.740740740740737,0)" xlink:href="#s"/><use transform="matrix(0.08641975308641973,0,0,0.08641975308641973,38.02469135802468,0)" xlink:href="#t"/><use transform="matrix(0.08641975308641973,0,0,0.08641975308641973,55.30864197530863,0)" xlink:href="#x"/><use transform="matrix(0.08641975308641973,0,0,0.08641975308641973,70.86419753086419,0)" xlink:href="#z"/><use transform="matrix(0.08641975308641973,0,0,0.08641975308641973,88.14814814814814,0)" xlink:href="#A"/></g><path fill="#333" d="M96-169c-40 0-48 33-48 73s9 75 48 75c24 0 41-14 43-38l32 2c-6 37-31 61-74 61-59 0-76-41-82-99-10-93 101-131 147-64 4 7 5 14 7 22l-32 3c-4-21-16-35-41-35" id="B"/><g id="d"><use transform="matrix(0.08641975308641973,0,0,0.08641975308641973,0,0)" xlink:href="#y"/><use transform="matrix(0.08641975308641973,0,0,0.08641975308641973,20.740740740740737,0)" xlink:href="#z"/><use transform="matrix(0.08641975308641973,0,0,0.08641975308641973,38.02469135802468,0)" xlink:href="#w"/><use transform="matrix(0.08641975308641973,0,0,0.08641975308641973,55.30864197530863,0)" xlink:href="#A"/><use transform="matrix(0.08641975308641973,0,0,0.08641975308641973,65.59259259259258,0)" xlink:href="#B"/><use transform="matrix(0.08641975308641973,0,0,0.08641975308641973,81.14814814814814,0)" xlink:href="#s"/></g><path fill="#333" d="M30 0v-248h33v221h125V0H30" id="C"/><path fill="#333" d="M24-231v-30h32v30H24zM24 0v-190h32V0H24" id="D"/><path fill="#333" d="M177-190C167-65 218 103 67 71c-23-6-38-20-44-43l32-5c15 47 100 32 89-28v-30C133-14 115 1 83 1 29 1 15-40 15-95c0-56 16-97 71-98 29-1 48 16 59 35 1-10 0-23 2-32h30zM94-22c36 0 50-32 50-73 0-42-14-75-50-75-39 0-46 34-46 75s6 73 46 73" id="E"/><g id="e"><use transform="matrix(0.06172839506172839,0,0,0.06172839506172839,0,0)" xlink:href="#C"/><use transform="matrix(0.06172839506172839,0,0,0.06172839506172839,12.345679012345679,0)" xlink:href="#D"/><use transform="matrix(0.06172839506172839,0,0,0.06172839506172839,17.22222222222222,0)" xlink:href="#x"/><use transform="matrix(0.06172839506172839,0,0,0.06172839506172839,28.333333333333332,0)" xlink:href="#u"/><use transform="matrix(0.06172839506172839,0,0,0.06172839506172839,34.50617283950617,0)" xlink:href="#s"/><use transform="matrix(0.06172839506172839,0,0,0.06172839506172839,46.85185185185185,0)" xlink:href="#t"/><use transform="matrix(0.06172839506172839,0,0,0.06172839506172839,59.197530864197525,0)" xlink:href="#D"/><use transform="matrix(0.06172839506172839,0,0,0.06172839506172839,64.07407407407406,0)" xlink:href="#t"/><use transform="matrix(0.06172839506172839,0,0,0.06172839506172839,76.41975308641975,0)" xlink:href="#E"/></g><path fill="#333" d="M101-234c-31-9-42 10-38 44h38v23H63V0H32v-167H5v-23h27c-7-52 17-82 69-68v24" id="F"/><g id="f"><use transform="matrix(0.06172839506172839,0,0,0.06172839506172839,0,0)" xlink:href="#F"/><use transform="matrix(0.06172839506172839,0,0,0.06172839506172839,6.172839506172839,0)" xlink:href="#z"/><use transform="matrix(0.06172839506172839,0,0,0.06172839506172839,18.51851851851852,0)" xlink:href="#A"/></g><g id="g"><use transform="matrix(0.06172839506172839,0,0,0.06172839506172839,0,0)" xlink:href="#q"/><use transform="matrix(0.06172839506172839,0,0,0.06172839506172839,14.814814814814813,0)" xlink:href="#r"/><use transform="matrix(0.06172839506172839,0,0,0.06172839506172839,25.925925925925924,0)" xlink:href="#s"/><use transform="matrix(0.06172839506172839,0,0,0.06172839506172839,38.2716049382716,0)" xlink:href="#t"/><use transform="matrix(0.06172839506172839,0,0,0.06172839506172839,50.61728395061728,0)" xlink:href="#u"/></g><path fill="#333" d="M233-177c-1 41-23 64-60 70L243 0h-38l-65-103H63V0H30v-248c88 3 205-21 203 71zM63-129c60-2 137 13 137-47 0-61-80-42-137-45v92" id="G"/><path fill="#333" d="M115-194c55 1 70 41 70 98S169 2 115 4C84 4 66-9 55-30l1 105H24l-1-265h31l2 30c10-21 28-34 59-34zm-8 174c40 0 45-34 45-75s-6-73-45-74c-42 0-51 32-51 76 0 43 10 73 51 73" id="H"/><g id="h"><use transform="matrix(0.06172839506172839,0,0,0.06172839506172839,0,0)" xlink:href="#G"/><use transform="matrix(0.06172839506172839,0,0,0.06172839506172839,15.987654320987653,0)" xlink:href="#s"/><use transform="matrix(0.06172839506172839,0,0,0.06172839506172839,28.333333333333332,0)" xlink:href="#x"/><use transform="matrix(0.06172839506172839,0,0,0.06172839506172839,39.44444444444444,0)" xlink:href="#H"/><use transform="matrix(0.06172839506172839,0,0,0.06172839506172839,51.79012345679012,0)" xlink:href="#z"/><use transform="matrix(0.06172839506172839,0,0,0.06172839506172839,64.1358024691358,0)" xlink:href="#t"/><use transform="matrix(0.06172839506172839,0,0,0.06172839506172839,76.48148148148148,0)" xlink:href="#x"/><use transform="matrix(0.06172839506172839,0,0,0.06172839506172839,87.5925925925926,0)" xlink:href="#s"/></g><g id="i"><use transform="matrix(0.06172839506172839,0,0,0.06172839506172839,0,0)" xlink:href="#u"/><use transform="matrix(0.06172839506172839,0,0,0.06172839506172839,6.172839506172839,0)" xlink:href="#z"/></g><g id="j"><use transform="matrix(0.06172839506172839,0,0,0.06172839506172839,0,0)" xlink:href="#q"/><use transform="matrix(0.06172839506172839,0,0,0.06172839506172839,14.814814814814813,0)" xlink:href="#r"/><use transform="matrix(0.06172839506172839,0,0,0.06172839506172839,25.925925925925924,0)" xlink:href="#s"/><use transform="matrix(0.06172839506172839,0,0,0.06172839506172839,38.2716049382716,0)" xlink:href="#t"/><use transform="matrix(0.06172839506172839,0,0,0.06172839506172839,50.61728395061728,0)" xlink:href="#u"/></g><path fill="#333" d="M266 0h-40l-56-210L115 0H75L2-248h35L96-30l15-64 43-154h32l59 218 59-218h35" id="I"/><g id="k"><use transform="matrix(0.06172839506172839,0,0,0.06172839506172839,0,0)" xlink:href="#I"/><use transform="matrix(0.06172839506172839,0,0,0.06172839506172839,20.493827160493826,0)" xlink:href="#A"/><use transform="matrix(0.06172839506172839,0,0,0.06172839506172839,27.839506172839506,0)" xlink:href="#D"/><use transform="matrix(0.06172839506172839,0,0,0.06172839506172839,32.71604938271605,0)" xlink:href="#u"/><use transform="matrix(0.06172839506172839,0,0,0.06172839506172839,38.88888888888889,0)" xlink:href="#s"/><use transform="matrix(0.06172839506172839,0,0,0.06172839506172839,51.23456790123457,0)" xlink:href="#x"/></g><g id="l"><use transform="matrix(0.06172839506172839,0,0,0.06172839506172839,0,0)" xlink:href="#q"/><use transform="matrix(0.06172839506172839,0,0,0.06172839506172839,14.814814814814813,0)" xlink:href="#r"/><use transform="matrix(0.06172839506172839,0,0,0.06172839506172839,25.925925925925924,0)" xlink:href="#s"/><use transform="matrix(0.06172839506172839,0,0,0.06172839506172839,38.2716049382716,0)" xlink:href="#t"/><use transform="matrix(0.06172839506172839,0,0,0.06172839506172839,50.61728395061728,0)" xlink:href="#u"/></g><g id="m"><use transform="matrix(0.06172839506172839,0,0,0.06172839506172839,0,0)" xlink:href="#v"/><use transform="matrix(0.06172839506172839,0,0,0.06172839506172839,14.814814814814813,0)" xlink:href="#w"/><use transform="matrix(0.06172839506172839,0,0,0.06172839506172839,27.160493827160494,0)" xlink:href="#x"/></g><g id="n"><use transform="matrix(0.06172839506172839,0,0,0.06172839506172839,0,0)" xlink:href="#G"/><use transform="matrix(0.06172839506172839,0,0,0.06172839506172839,15.987654320987653,0)" xlink:href="#s"/><use transform="matrix(0.06172839506172839,0,0,0.06172839506172839,28.333333333333332,0)" xlink:href="#B"/><use transform="matrix(0.06172839506172839,0,0,0.06172839506172839,39.44444444444444,0)" xlink:href="#D"/><use transform="matrix(0.06172839506172839,0,0,0.06172839506172839,44.32098765432099,0)" xlink:href="#s"/><use transform="matrix(0.06172839506172839,0,0,0.06172839506172839,56.666666666666664,0)" xlink:href="#r"/><use transform="matrix(0.06172839506172839,0,0,0.06172839506172839,67.77777777777777,0)" xlink:href="#s"/><use transform="matrix(0.06172839506172839,0,0,0.06172839506172839,80.12345679012346,0)" xlink:href="#x"/></g><g id="o"><use transform="matrix(0.06172839506172839,0,0,0.06172839506172839,0,0)" xlink:href="#G"/><use transform="matrix(0.06172839506172839,0,0,0.06172839506172839,15.987654320987653,0)" xlink:href="#s"/><use transform="matrix(0.06172839506172839,0,0,0.06172839506172839,28.333333333333332,0)" xlink:href="#x"/><use transform="matrix(0.06172839506172839,0,0,0.06172839506172839,39.44444444444444,0)" xlink:href="#H"/><use transform="matrix(0.06172839506172839,0,0,0.06172839506172839,51.79012345679012,0)" xlink:href="#z"/><use transform="matrix(0.06172839506172839,0,0,0.06172839506172839,64.1358024691358,0)" xlink:href="#t"/><use transform="matrix(0.06172839506172839,0,0,0.06172839506172839,76.48148148148148,0)" xlink:href="#x"/><use transform="matrix(0.06172839506172839,0,0,0.06172839506172839,87.5925925925926,0)" xlink:href="#s"/></g><path fill="#333" d="M205 0l-28-72H64L36 0H1l101-248h38L239 0h-34zm-38-99l-47-123c-12 45-31 82-46 123h93" id="J"/><g id="p"><use transform="matrix(0.06172839506172839,0,0,0.06172839506172839,0,0)" xlink:href="#J"/><use transform="matrix(0.06172839506172839,0,0,0.06172839506172839,14.814814814814813,0)" xlink:href="#B"/><use transform="matrix(0.06172839506172839,0,0,0.06172839506172839,25.925925925925924,0)" xlink:href="#u"/><use transform="matrix(0.06172839506172839,0,0,0.06172839506172839,32.098765432098766,0)" xlink:href="#D"/><use transform="matrix(0.06172839506172839,0,0,0.06172839506172839,36.97530864197531,0)" xlink:href="#z"/><use transform="matrix(0.06172839506172839,0,0,0.06172839506172839,49.32098765432099,0)" xlink:href="#t"/></g></defs></g></svg>